<?xml version="1.0" encoding="UTF-8"?>
<svg width="167px" height="40px" viewBox="0 0 167 40" version="1.1" xmlns="http://www.w3.org/2000/svg" xmlns:xlink="http://www.w3.org/1999/xlink">
    <!-- Generator: Sketch 47.1 (45422) - http://www.bohemiancoding.com/sketch -->
    <title>CARCILITY Horizontal Logos </title>
    <desc>Created with Sketch.</desc>
    <defs></defs>
    <g id="Page-1" stroke="none" stroke-width="1" fill="none" fill-rule="evenodd">
        <g id="landing-4" transform="translate(-21.000000, -20.000000)">
            <g id="CARCILITY-Horizontal-Logos-" transform="translate(21.000000, 20.000000)">
                <path d="M19.9437255,34.9524837 C14.877451,34.9524837 10.3965359,32.4086928 7.70359477,28.5333987 L32.1947059,28.5333987 C29.4076471,32.570915 24.8970588,34.9524837 19.9437255,34.9524837 Z" id="Fill-1" fill="#0065A3"></path>
                <path d="M33.6541569,28.2701176 C30.7338954,33.1335163 25.6082745,36.0374379 19.9436993,36.0374379 C11.1307582,36.0374379 3.96056209,28.8671111 3.96056209,20.0541699 C3.96056209,11.2409673 11.1307582,4.07064052 19.9436993,4.07064052 C25.5925882,4.07064052 30.8791242,7.10423529 33.7401699,11.9875033 L34.1412157,12.6719477 L38.4804314,12.6719477 C35.5456601,5.31560784 28.3617386,0.114562092 19.9583399,0.114562092 C8.94605229,0.114562092 0.0188627451,9.04188235 0.0188627451,20.0540392 C0.0188627451,31.0663268 8.94605229,39.9935163 19.9583399,39.9935163 C28.346183,39.9935163 35.5192549,34.811817 38.4642222,27.4770458 L34.1301046,27.4770458 L33.6541569,28.2701176 Z" id="Fill-3" fill="#00030E"></path>
                <path d="M24.7321961,5.96007843 L21.6469673,11.7191634 L32.289451,11.7191634 C30.4524575,9.00648366 27.7750719,7.00060131 24.7321961,5.96007843" id="Fill-5" fill="#28A647"></path>
                <path d="M15.4789804,19.1892418 L10.0478693,8.92976471 C6.98159477,11.6606144 5.04551634,15.6346013 5.04551634,20.0542092 C5.04551634,22.7442745 5.76564706,25.2678039 7.01806536,27.4485882 L15.4789804,27.4485882 L19.8510065,27.4485882 L15.4789804,19.1892418 Z" id="Fill-7" fill="#DA322A"></path>
                <path d="M19.9437255,5.15552941 C16.5452941,5.15552941 13.410915,6.30180392 10.9015033,8.22454902 L15.4790196,16.8716078 L16.5612418,18.916183 L19.9063399,12.672 L23.6743137,5.63827451 C22.4681699,5.32350327 21.2162745,5.15552941 19.9437255,5.15552941" id="Fill-9" fill="#E6782C"></path>
                <path d="M47.8148105,16.502549 C48.257817,16.0594118 48.7748105,15.7114379 49.3651373,15.458366 C49.9554641,15.2052941 50.5878824,15.0790196 51.262915,15.0790196 C52.5984706,15.0790196 53.7446144,15.5571895 54.7008235,16.5133987 L56.4295817,14.7838562 C55.7552026,14.1088235 54.9782092,13.581634 54.0996471,13.2022876 C53.2205621,12.8224183 52.2752026,12.6324837 51.262915,12.6324837 C50.2506275,12.6324837 49.3013464,12.8262092 48.4159869,13.2124837 C47.5304967,13.5995425 46.752719,14.1266013 46.0859216,14.7940523 C45.417817,15.4621569 44.8899739,16.2424183 44.5036993,17.1354902 C44.1167712,18.0280392 43.9235686,18.9669935 43.9235686,19.9506536 C43.9235686,20.9630719 44.1167712,21.9122222 44.5036993,22.7975817 C44.8899739,23.6837255 45.417817,24.4570588 46.0859216,25.1181046 C46.752719,25.7784967 47.5304967,26.302549 48.4159869,26.6888235 C49.3013464,27.0757516 50.2506275,27.2689542 51.262915,27.2689542 C52.2752026,27.2689542 53.2205621,27.0790196 54.0996471,26.6996732 C54.9782092,26.3196732 55.7552026,25.7924837 56.4295817,25.1181046 L54.7008235,23.4096078 C53.7306275,24.3518301 52.5843529,24.8222876 51.262915,24.8222876 C50.5878824,24.8222876 49.9516732,24.6960131 49.3542876,24.4430719 C48.7570327,24.1898693 48.2400392,23.8418954 47.8046144,23.3987582 C47.3685359,22.9564052 47.0204314,22.4394118 46.7604314,21.849085 C46.5003007,21.2581046 46.3702353,20.6256863 46.3702353,19.9506536 C46.3702353,19.2761438 46.5003007,18.6432026 46.7604314,18.0528758 C47.0204314,17.4618954 47.3723268,16.9455556 47.8148105,16.502549" id="Fill-11" fill="#00030E"></path>
                <polygon id="Fill-13" fill="#00030E" points="59.3296993 27.268915 61.9204183 27.268915 66.298719 18.5316601 69.5098301 24.9389804 69.5128366 24.9389804 70.6775425 27.268915 73.268915 27.268915 66.298719 13.3298301"></polygon>
                <path d="M87.8201699,20.6002092 C88.3690588,19.8104052 88.6438301,18.933281 88.6438301,17.9693595 C88.6438301,16.6975948 88.1886667,15.6062222 87.2783399,14.6952418 C86.3673595,13.784915 85.2759869,13.3297516 84.0043529,13.3297516 L77.0346797,13.3297516 L77.0346797,15.6698824 L79.3442222,15.6698824 L79.3442222,15.659817 L84.0043529,15.659817 C84.6333725,15.659817 85.1758562,15.8873987 85.6311503,16.3425621 C86.086183,16.7977255 86.3138954,17.3402092 86.3138954,17.9693595 C86.3138954,18.6119739 86.086183,19.1615163 85.6311503,19.6166797 C85.1758562,20.0718431 84.6333725,20.2992941 84.0043529,20.2992941 L77.0346797,20.2992941 L77.0346797,27.2689673 L79.3442222,27.2689673 L79.3442222,22.6293595 L83.2813464,22.6293595 L85.972719,27.2689673 L88.6438301,27.2689673 L85.7719346,22.2679216 C86.602,21.9331503 87.2846144,21.3773333 87.8201699,20.6002092" id="Fill-15" fill="#00030E"></path>
                <path d="M96.3659216,17.015085 C96.7880131,16.5936471 97.2800392,16.2622745 97.8423922,16.0212288 C98.4046144,15.7803137 99.0069673,15.6597908 99.6495817,15.6597908 C100.922,15.6597908 102.013373,16.1149542 102.923699,17.025281 L104.57102,15.3780915 C103.928405,14.7354771 103.188144,14.2337778 102.351281,13.8716863 C101.514288,13.5102484 100.614157,13.3298562 99.6495817,13.3298562 C98.6857908,13.3298562 97.7817386,13.5140392 96.9384706,13.8818824 C96.0950719,14.2503791 95.3549412,14.7526013 94.7186013,15.3882876 C94.0825229,16.024366 93.5806928,16.7677647 93.2123268,17.6180915 C92.8439608,18.468549 92.6601699,19.3622745 92.6601699,20.2993987 C92.6601699,21.2633203 92.8439608,22.1672418 93.2123268,23.0105098 C93.5806928,23.8545621 94.0825229,24.590902 94.7186013,25.2200523 C95.3549412,25.8498562 96.0950719,26.3484183 96.9384706,26.7167843 C97.7817386,27.0854118 98.6857908,27.2689412 99.6495817,27.2689412 C100.614157,27.2689412 101.514288,27.0878954 102.351281,26.7263268 C103.188144,26.3650196 103.928405,25.8626667 104.57102,25.2200523 L102.923699,23.5932549 C102.000039,24.4907712 100.908667,24.9390065 99.6495817,24.9390065 C99.0069673,24.9390065 98.4013464,24.8184837 97.8321961,24.5774379 C97.2627843,24.3365229 96.7707582,24.0050196 96.3557255,23.5830588 C95.9406928,23.1616209 95.6093203,22.6694641 95.3618693,22.1072418 C95.1138954,21.544366 94.990366,20.9420131 94.990366,20.2993987 C94.990366,19.6567843 95.1138954,19.0537778 95.3618693,18.4914248 C95.6093203,17.9292026 95.9438301,17.4370458 96.3659216,17.015085" id="Fill-17" fill="#00030E"></path>
                <polygon id="Fill-19" fill="#00030E" points="109.162092 27.2688889 111.471634 27.2688889 111.471634 13.3298039 109.162092 13.3298039"></polygon>
                <polygon id="Fill-21" fill="#00030E" points="118.717595 13.3298039 116.408052 13.3298039 116.408052 27.2688889 125.687137 27.2688889 125.687137 24.9389542 118.717595 24.9389542"></polygon>
                <polygon id="Fill-22" fill="#00030E" points="130.451503 27.2688889 132.761046 27.2688889 132.761046 13.3298039 130.451503 13.3298039"></polygon>
                <polygon id="Fill-23" fill="#00030E" points="137.467333 15.6597647 142.127203 15.6597647 142.127203 27.268915 144.456614 27.268915 144.456614 15.6597647 149.096876 15.6597647 149.096876 13.3298301 137.467333 13.3298301"></polygon>
                <polygon id="Fill-24" fill="#00030E" points="163.961791 13.3298039 159.98519 18.4111111 156.028458 13.3298039 153.055778 13.3298039 158.880484 20.7615686 158.880484 27.2688889 161.190026 27.2688889 161.190026 20.6403922 166.914601 13.3298039"></polygon>
            </g>
        </g>
    </g>
</svg>